# File created by Blade
# Date/Time:  Tue Sep 30 19:36:36 2014
#---------------------------------------------------------
:version 1.10
:name HOM
:units
  mass 1.0
  length 1.000000
  angle deg
:documentation
     Acclaim Skeleton File
:root
   axis xyz
   order TX TY TZ RX RY RZ
   position 0.000000 0.000000 0.000000
   orientation 0 0 0
:bonedata
   begin
      id 1
      name Spine_dum
      direction 0.000000 1.000000 0.000000
      length 3.241213
      axis 0.0 0.0 0.0 xyz
   end
   begin
      id 2
      name LeftUpLeg_dum
      direction 1.000000 0.000000 0.000000
      length 3.434019
      axis 0.0 0.0 0.0 xyz
   end
   begin
      id 3
      name RightUpLeg_dum
      direction -1.000000 0.000000 0.000000
      length 3.434019
      axis 0.0 0.0 0.0 xyz
   end
   begin
      id 4
      name Spine
      direction 0.000000 1.000000 0.000000
      length 0.000000
      axis 0.0 0.0 0.0 xyz
      dof rx ry rz
   end
   begin
      id 5
      name Spine_dum1
      direction 0.000000 1.000000 0.000000
      length 18.382958
      axis 0.0 0.0 0.0 xyz
   end
   begin
      id 6
      name Spine_dum2
      direction 0.000000 1.000000 0.000000
      length 12.828261
      axis 0.0 0.0 0.0 xyz
   end
   begin
      id 7
      name Spine_dum3
      direction 0.000000 1.000000 0.000000
      length 12.828261
      axis 0.0 0.0 0.0 xyz
   end
   begin
      id 8
      name Head
      direction 0.000000 1.000000 0.000000
      length 4.527550
      axis 0.0 0.0 0.0 xyz
      dof rx ry rz
   end
   begin
      id 9
      name LeftShoulder
      direction 1.000000 0.000000 0.000000
      length 7.748055
      axis 0.0 0.0 -90.0 xyz
      dof rx ry rz
   end
   begin
      id 10
      name LeftArm
      direction 1.000000 0.000000 0.000000
      length 10.635614
      axis 0.0 0.0 -90.0 xyz
      dof rx ry rz
   end
   begin
      id 11
      name LeftForeArm
      direction 1.000000 0.000000 0.000000
      length 8.346755
      axis 0.0 0.0 -90.0 xyz
      dof ry rz rx
   end
   begin
      id 12
      name LeftHand
      direction 0.000000 0.000000 0.000000
      length 0.000000
      axis 0.0 0.0 -90.0 xyz
      dof rx ry rz
   end
   begin
      id 13
      name LeftHand_dum1
      direction 0.000000 0.000000 0.000000
      length 0.000000
      axis 0.0 0.0 -90.0 xyz
   end
   begin
      id 14
      name LeftHand_dum2
      direction 1.000000 0.000000 0.000000
      length 3.937000
      axis 0.0 0.0 -90.0 xyz
   end
   begin
      id 15
      name LeftHandThumb1
      direction 0.000000 0.000000 1.000000
      length 3.937000
      axis 0.0 0.0 -90.0 xyz
      dof rx rz ry
   end
   begin
      id 16
      name RightShoulder
      direction -1.000000 0.000000 0.000000
      length 7.748055
      axis 0.0 0.0 90.0 xyz
      dof rx ry rz
   end
   begin
      id 17
      name RightArm
      direction -1.000000 0.000000 0.000000
      length 10.635614
      axis 0.0 0.0 90.0 xyz
      dof rx ry rz
   end
   begin
      id 18
      name RightForeArm
      direction -1.000000 0.000000 0.000000
      length 8.346755
      axis 0.0 0.0 90.0 xyz
      dof ry rz rx
   end
   begin
      id 19
      name RightHand
      direction 0.000000 0.000000 0.000000
      length 0.000000
      axis 0.0 0.0 90.0 xyz
      dof rx ry rz
   end
   begin
      id 20
      name RightHand_dum1
      direction 0.000000 0.000000 0.000000
      length 0.000000
      axis 0.0 0.0 90.0 xyz
   end
   begin
      id 21
      name RightHand_dum2
      direction -1.000000 0.000000 0.000000
      length 3.937000
      axis 0.0 0.0 90.0 xyz
   end
   begin
      id 22
      name RightHandThumb1
      direction 0.000000 0.000000 1.000000
      length 3.937000
      axis 0.0 0.0 90.0 xyz
      dof rx rz ry
   end
   begin
      id 23
      name LeftUpLeg
      direction 0.000000 -1.000000 0.000000
      length 15.713025
      axis 0.0 0.0 0.0 xyz
      dof rx ry rz
   end
   begin
      id 24
      name LeftLeg
      direction 0.000000 -1.000000 0.000000
      length 14.435119
      axis 0.0 0.0 0.0 xyz
      dof rx ry rz
   end
   begin
      id 25
      name LeftFoot
      direction 0.000000 -0.258819 0.965926
      length 4.938895
      axis 15.0 0.0 0.0 xyz
      dof rx ry rz
   end
   begin
      id 26
      name LeftToeBase
      direction 0.000000 0.000000 1.000000
      length 2.952750
      axis 0.0 0.0 0.0 xyz
      dof rx ry rz
   end
   begin
      id 27
      name RightUpLeg
      direction 0.000000 -1.000000 0.000000
      length 15.713025
      axis 0.0 0.0 0.0 xyz
      dof rx ry rz
   end
   begin
      id 28
      name RightLeg
      direction 0.000000 -1.000000 0.000000
      length 14.435119
      axis 0.0 0.0 0.0 xyz
      dof rx ry rz
   end
   begin
      id 29
      name RightFoot
      direction 0.000000 -0.258819 0.965926
      length 4.938895
      axis 15.0 0.0 0.0 xyz
      dof rx ry rz
   end
   begin
      id 30
      name RightToeBase
      direction 0.000000 0.000000 1.000000
      length 2.952750
      axis 0.0 0.0 0.0 xyz
      dof rx ry rz
   end
:hierarchy
   begin
      root Spine_dum LeftUpLeg_dum RightUpLeg_dum
      Spine_dum Spine
      LeftUpLeg_dum LeftUpLeg
      RightUpLeg_dum RightUpLeg
      Spine Spine_dum1 Spine_dum2 Spine_dum3
      Spine_dum1 Head
      Spine_dum2 LeftShoulder
      Spine_dum3 RightShoulder
      LeftShoulder LeftArm
      LeftArm LeftForeArm
      LeftForeArm LeftHand
      LeftHand LeftHand_dum1 LeftHand_dum2
      LeftHand_dum1 LeftHandThumb1
      RightShoulder RightArm
      RightArm RightForeArm
      RightForeArm RightHand
      RightHand RightHand_dum1 RightHand_dum2
      RightHand_dum1 RightHandThumb1
      LeftUpLeg LeftLeg
      LeftLeg LeftFoot
      LeftFoot LeftToeBase
      RightUpLeg RightLeg
      RightLeg RightFoot
      RightFoot RightToeBase
   end

# File created by Blade
# Date/Time:  Tue Sep 23 19:22:32 2014
# Frame Rate: 120.000 fps
#------------------------------------------------------
:FULLY-SPECIFIED
:DEGREES
475
root 1.088591 34.491554 -0.575853 124.248457 3.591396 -38.118569
Spine -78.151228 -10.478372 32.870868
Head -24.192761 25.136580 42.585235
LeftShoulder -19.269363 31.744355 41.680261
LeftArm 131.210305 -73.124779 -140.184038
LeftForeArm 2.214039 -0.000000 106.862534
LeftHand 38.153546 -0.000000 5.245945
LeftHandThumb1 -26.253704 0.000000 33.147579
RightShoulder -50.477003 -44.156761 14.517087
RightArm 42.291900 49.403275 104.872374
RightForeArm 50.726626 0.000000 78.178062
RightHand 10.057860 -0.000000 -18.668512
RightHandThumb1 -24.326973 -0.000000 -32.862282
LeftUpLeg -125.820086 33.743194 -16.978969
LeftLeg -8.091910 -0.000000 0.000000
LeftFoot 2.215181 -0.555870 4.670351
LeftToeBase 4.494288 -0.000000 -0.000000
RightUpLeg 1.563232 5.024379 -31.992214
RightLeg 93.861476 -0.000000 -0.000000
RightFoot 40.886872 10.707621 -3.673342
RightToeBase 40.428047 -0.000000 -0.000000
476
root 1.089222 34.492667 -0.577757 124.137729 3.541313 -38.031406
Spine -78.120348 -10.650676 32.956980
Head -24.196068 25.142728 42.621576
LeftShoulder -19.334748 31.822410 41.640280
LeftArm 130.856915 -73.166584 -139.786378
LeftForeArm 2.019947 -0.000000 106.911956
LeftHand 37.914402 0.000000 5.573746
LeftHandThumb1 -26.253704 0.000000 33.147579
RightShoulder -50.877478 -44.318688 15.114210
RightArm 41.212137 48.691647 103.775335
RightForeArm 50.705060 -0.000000 79.493731
RightHand 10.066220 -0.000000 -18.437710
RightHandThumb1 -24.326973 -0.000000 -32.862282
LeftUpLeg -125.697403 33.698356 -16.885520
LeftLeg -7.998877 -0.000000 0.000000
LeftFoot 2.115149 -0.614095 4.293616
LeftToeBase 4.789491 -0.000000 -0.000000
RightUpLeg 1.456089 5.170000 -32.063904
RightLeg 94.810394 -0.000000 -0.000000
RightFoot 41.125790 10.477203 -3.834467
RightToeBase 40.636047 -0.000000 -0.000000
477
root 1.087961 34.494012 -0.580008 124.053083 3.515285 -37.979768
Spine -78.107001 -10.766688 33.042085
Head -24.126403 25.130594 42.647317
LeftShoulder -19.351500 31.911371 41.641110
LeftArm 130.844455 -73.160442 -139.755729
LeftForeArm 1.602880 -0.000000 106.767342
LeftHand 38.451474 -0.000000 5.113315
LeftHandThumb1 -26.253704 0.000000 33.147579
RightShoulder -51.403474 -44.504590 15.687967
RightArm 40.575647 47.902730 103.193726
RightForeArm 50.356147 0.000000 80.621155
RightHand 10.119796 0.000000 -18.244815
RightHandThumb1 -24.326973 -0.000000 -32.862282
LeftUpLeg -125.647976 33.674990 -16.846277
LeftLeg -7.892098 -0.000000 0.000000
LeftFoot 2.006542 -0.699551 3.954418
LeftToeBase 5.056827 -0.000000 -0.000000
RightUpLeg 1.299011 5.295296 -32.156104
RightLeg 95.781719 -0.000000 -0.000000
RightFoot 41.174260 10.068772 -4.030598
RightToeBase 40.971590 -0.000000 -0.000000
478
root 1.089108 34.493478 -0.578803 124.013336 3.487522 -37.895979
Spine -78.153174 -10.867310 33.180470
Head -24.019297 25.139519 42.646081
LeftShoulder -19.387494 31.987893 41.637781
LeftArm 130.596666 -73.167369 -139.512648
LeftForeArm 1.272868 -0.000000 106.701068
LeftHand 38.845232 -0.000000 4.559362
LeftHandThumb1 -26.253704 0.000000 33.147579
RightShoulder -51.815300 -44.673071 16.160160
RightArm 39.795730 47.151251 102.428278
RightForeArm 50.058262 0.000000 81.736523
RightHand 9.933803 -0.000000 -17.802173
RightHandThumb1 -24.326973 -0.000000 -32.862282
LeftUpLeg -125.611817 33.609805 -16.797742
LeftLeg -7.811298 -0.000000 0.000000
LeftFoot 1.902516 -0.761837 3.632824
LeftToeBase 5.349652 -0.000000 -0.000000
RightUpLeg 1.120175 5.380827 -32.222349
RightLeg 96.719856 -0.000000 -0.000000
RightFoot 41.308159 9.445233 -4.239844
RightToeBase 41.347817 -0.000000 -0.000000
479
root 1.091649 34.494397 -0.578143 124.017790 3.507860 -37.840445
Spine -78.206093 -10.890122 33.342252
Head -23.903555 25.125609 42.609645
LeftShoulder -19.395953 32.058871 41.635880
LeftArm 130.287613 -73.260519 -139.208995
LeftForeArm 1.417247 -0.000000 106.683114
LeftHand 38.858781 -0.000000 4.564939
LeftHandThumb1 -26.253704 0.000000 33.147579
RightShoulder -52.187453 -44.842134 16.605817
RightArm 38.941455 46.425580 101.560346
RightForeArm 49.781352 -0.000000 82.803484
RightHand 9.768158 -0.000000 -17.390852
RightHandThumb1 -24.326973 -0.000000 -32.862282
LeftUpLeg -125.677897 33.546315 -16.802014
LeftLeg -7.720041 -0.000000 0.000000
LeftFoot 1.852279 -0.843598 3.367804
LeftToeBase 5.411788 -0.000000 -0.000000
RightUpLeg 0.841490 5.501954 -32.301143
RightLeg 97.665555 -0.000000 -0.000000
RightFoot 41.439626 9.031721 -4.494405
RightToeBase 41.233455 -0.000000 -0.000000
